<?xml version="1.0" standalone="no"?>
<!DOCTYPE svg PUBLIC "-//W3C//DTD SVG 20010904//EN"
 "http://www.w3.org/TR/2001/REC-SVG-20010904/DTD/svg10.dtd">
<svg version="1.0" xmlns="http://www.w3.org/2000/svg"
 width="1300.000000pt" height="1300.000000pt" viewBox="0 0 1300.000000 1300.000000"
 preserveAspectRatio="xMidYMid meet">
<metadata>
Created by potrace 1.11, written by Peter Selinger 2001-2013
</metadata>
<g transform="translate(0.000000,1300.000000) scale(0.100000,-0.100000)"
fill="#000000" stroke="none">
<path d="M3745 10444 c-16 -2 -79 -9 -140 -15 -651 -65 -1343 -333 -1880 -727
-744 -547 -1265 -1309 -1499 -2192 -137 -517 -162 -1116 -71 -1660 150 -884
606 -1699 1285 -2294 401 -351 836 -603 1343 -775 405 -138 811 -203 1262
-202 453 0 826 60 1244 200 434 146 857 373 1188 640 l59 48 35 -29 c19 -16
79 -62 134 -102 539 -390 1159 -630 1845 -713 204 -25 668 -25 870 0 564 70
1069 239 1540 515 654 382 1211 987 1534 1663 289 605 415 1226 385 1891 -71
1553 -1069 2920 -2530 3466 -658 246 -1387 310 -2084 181 -600 -111 -1219
-391 -1694 -767 l-24 -19 -101 79 c-457 358 -1020 617 -1605 738 -274 58 -416
72 -756 75 -170 2 -323 1 -340 -1z m3024 -1875 c68 -12 161 -31 205 -43 71
-20 81 -25 84 -47 2 -23 -81 -516 -89 -523 -2 -2 -38 3 -79 11 -48 11 -133 16
-240 17 -159 1 -167 0 -222 -26 -107 -50 -138 -138 -138 -400 l0 -158 290 0
290 0 0 -310 0 -310 -290 0 -290 0 -2 -1162 -3 -1163 -390 0 -390 0 -3 1162
-2 1163 -213 2 -212 3 -3 308 -2 307 215 0 215 0 0 173 c0 393 50 614 171 751
123 140 335 240 564 267 120 13 396 2 534 -22z m1965 -18 c3 -5 231 -676 506
-1491 275 -816 502 -1485 505 -1488 3 -3 7 -3 9 -1 3 2 223 666 490 1474 267
809 490 1480 496 1493 l10 22 430 0 c280 0 430 -3 430 -10 0 -8 -1407 -3962
-1435 -4032 -7 -17 -38 -18 -454 -18 l-447 0 -712 2018 c-392 1110 -712 2024
-712 2030 0 14 875 17 884 3z"/>
</g>
</svg>
